<?xml version="1.0" standalone="no"?>
<!DOCTYPE svg PUBLIC "-//W3C//DTD SVG 20010904//EN"
 "http://www.w3.org/TR/2001/REC-SVG-20010904/DTD/svg10.dtd">
<svg version="1.0" xmlns="http://www.w3.org/2000/svg"
 width="256.000000pt" height="256.000000pt" viewBox="0 0 256.000000 256.000000"
 preserveAspectRatio="xMidYMid meet">
<metadata>
Created by potrace 1.11, written by Peter Selinger 2001-2013
</metadata>
<g transform="translate(0.000000,256.000000) scale(0.100000,-0.100000)"
fill="#000000" stroke="none">
<path d="M185 2548 c-49 -18 -102 -55 -129 -91 -58 -76 -56 -26 -56 -1171 0
-1194 -5 -1122 78 -1205 87 -86 10 -81 1207 -81 1192 0 1111 -5 1196 80 84 84
79 12 79 1205 0 1191 5 1111 -80 1196 -84 84 -11 79 -1210 78 -721 0 -1064 -4
-1085 -11z"/>
</g>
</svg>
